<svg xmlns="http://www.w3.org/2000/svg" viewBox="0 0 96 96" fill="none"><defs><linearGradient id="g6" x1="0" y1="0" x2="1" y2="1"><stop offset="0" stop-color="#818CF8"/><stop offset=".55" stop-color="#9E87F3"/><stop offset="1" stop-color="#B0A0EC"/></linearGradient></defs><g transform="rotate(-8 48 48)"><path d="M50 74 C 38 84, 22 82, 14 90" stroke="url(#g6)" stroke-width="7" stroke-linecap="round" opacity=".85"/><path d="M52 76 C 46 84, 38 88, 33 92" stroke="url(#g6)" stroke-width="4" stroke-linecap="round" opacity=".5"/><ellipse cx="50" cy="48" rx="26" ry="28" fill="url(#g6)"/><ellipse cx="42" cy="38" rx="9" ry="6" fill="rgba(255,255,255,0.35)" transform="rotate(-18 42 38)"/><path d="M37 42 l4 4 l4 -4 M55 42 l4 4 l4 -4" stroke="#0B0D14" stroke-width="3" stroke-linecap="round" stroke-linejoin="round"/><path d="M43 52 Q50 62 57 52" stroke="#0B0D14" stroke-width="2.6" stroke-linecap="round"/><circle cx="76" cy="22" r="2.5" fill="#E0A84E"/><circle cx="86" cy="32" r="2" fill="#4EC08A"/><circle cx="80" cy="42" r="1.8" fill="#818CF8"/><path d="M70 14 l2 5 M88 20 l-3 4" stroke="#B0A0EC" stroke-width="2.4" stroke-linecap="round"/></g></svg>